<svg viewBox="0 0 30 31" fill="none" xmlns="http://www.w3.org/2000/svg">
    <path d="M20.5572 18.8838C20.5572 17.9144 20.3009 17.028 19.7885 16.2247C19.2761 15.4076 18.5905 14.7567 17.7319 14.2719C16.887 13.7872 15.9799 13.5448 15.0104 13.5448C14.041 13.5448 13.1269 13.7872 12.2682 14.2719C11.4095 14.7567 10.724 15.4076 10.2116 16.2247C9.69913 17.028 9.44291 17.9144 9.44291 18.8838C9.44291 20.3657 9.99689 21.6399 11.1049 22.7063C12.199 23.7727 13.5008 24.3059 15.0104 24.3059C16.5062 24.3059 17.8011 23.7727 18.8952 22.7063C20.0032 21.6399 20.5572 20.3657 20.5572 18.8838ZM27.1841 19.0292C27.1703 21.1344 26.6094 23.0387 25.5014 24.7422C24.3935 26.4734 22.8977 27.8306 21.0142 28.8139C19.1307 29.8111 17.1294 30.3097 15.0104 30.3097C13.39 30.3097 11.8527 30.0258 10.3985 29.4579C8.95818 28.9317 7.6494 28.1353 6.47219 27.0689C5.30883 26.0025 4.40861 24.7837 3.77153 23.4126C3.13446 22.0415 2.81592 20.5319 2.81592 18.8838C2.81592 17.2773 3.14138 15.7746 3.79231 14.3758C4.42939 12.9909 5.32268 11.779 6.47219 10.7403C7.63555 9.68774 8.94433 8.89139 10.3985 8.35126C11.8943 7.81113 13.4316 7.54106 15.0104 7.54106C16.5754 7.54106 18.1058 7.81113 19.6015 8.35126L20.5572 8.76675V0L27.1841 0.0207743V19.0292Z" />
    <style>
        path { fill: #000; }
        @media (prefers-color-scheme: dark) {
            path { fill: #FFF; }
        }
    </style>
</svg>
