<svg width="400" height="400" viewBox="0 0 400 400" fill="none" xmlns="http://www.w3.org/2000/svg">
<path d="M268.414 245.481C268.414 233.546 265.26 222.633 258.951 212.744C252.643 202.685 244.203 194.671 233.632 188.703C223.231 182.736 212.063 179.752 200.128 179.752C188.193 179.752 176.939 182.736 166.368 188.703C155.797 194.671 147.357 202.685 141.049 212.744C134.74 222.633 131.586 233.546 131.586 245.481C131.586 263.725 138.406 279.411 152.046 292.54C165.516 305.668 181.543 312.233 200.128 312.233C218.542 312.233 234.484 305.668 247.954 292.54C261.594 279.411 268.414 263.725 268.414 245.481ZM350 247.271C349.83 273.188 342.924 296.632 329.284 317.604C315.644 338.916 297.229 355.626 274.041 367.731C250.853 380.008 226.215 386.146 200.128 386.146C180.179 386.146 161.253 382.65 143.35 375.66C125.618 369.181 109.506 359.377 95.0128 346.248C80.6905 333.119 69.6078 318.115 61.7647 301.235C53.9216 284.356 50 265.771 50 245.481C50 225.702 54.0068 207.203 62.0205 189.982C69.8636 172.932 80.861 158.013 95.0128 145.225C109.335 132.267 125.448 122.463 143.35 115.813C161.765 109.164 180.691 105.839 200.128 105.839C219.395 105.839 238.235 109.164 256.65 115.813L268.414 120.928V13L350 13.2558V247.271Z" fill="white"/>
</svg>
