<svg width="1321" height="300" viewBox="0 0 1321 300" fill="none" xmlns="http://www.w3.org/2000/svg">
<path d="M175.6 186.909C175.6 177.313 173.064 168.54 167.992 160.589C162.92 152.502 156.134 146.059 147.635 141.261C139.273 136.463 130.295 134.064 120.699 134.064C111.104 134.064 102.056 136.463 93.5572 141.261C85.0583 146.059 78.2728 152.502 73.2008 160.589C68.1289 168.54 65.5929 177.313 65.5929 186.909C65.5929 201.576 71.0761 214.188 82.0425 224.743C92.8718 235.298 105.757 240.576 120.699 240.576C135.504 240.576 148.321 235.298 159.15 224.743C170.117 214.188 175.6 201.576 175.6 186.909ZM241.193 188.348C241.056 209.184 235.504 228.033 224.537 244.894C213.571 262.029 198.766 275.463 180.123 285.195C161.48 295.065 141.672 300 120.699 300C104.661 300 89.4448 297.19 75.0514 291.57C60.7951 286.361 47.841 278.478 36.1892 267.923C24.6744 257.368 15.7642 245.305 9.45853 231.734C3.15284 218.163 0 203.221 0 186.909C0 171.008 3.22138 156.134 9.66415 142.289C15.9698 128.581 24.8115 116.587 36.1892 106.306C47.7039 95.8876 60.658 88.0055 75.0514 82.6594C89.8561 77.3132 105.072 74.6402 120.699 74.6402C136.189 74.6402 151.337 77.3132 166.141 82.6594L175.6 86.7718V0L241.193 0.20562V188.348Z" fill="white"/>
<path d="M372.173 300C351.199 300 331.391 295.065 312.748 285.195C294.106 275.326 279.301 261.823 268.334 244.688C257.231 227.416 251.679 208.088 251.679 186.703C251.679 170.665 254.901 155.723 261.343 141.878C267.786 128.033 276.628 116.038 287.868 105.894C299.246 95.6134 312.2 87.7313 326.731 82.2481C341.535 76.7649 356.683 74.0233 372.173 74.0233C387.8 74.0233 403.016 76.7649 417.82 82.2481C432.214 87.4572 445.168 95.2707 456.683 105.689C468.06 116.107 476.902 128.17 483.208 141.878C489.65 155.723 492.872 170.665 492.872 186.703C492.872 203.016 489.719 217.958 483.413 231.528C477.108 245.236 468.197 257.368 456.683 267.923C445.031 278.341 432.077 286.223 417.82 291.57C403.427 297.19 388.211 300 372.173 300ZM317.272 186.703C317.272 201.371 322.755 213.982 333.722 224.537C344.551 235.093 357.368 240.37 372.173 240.37C387.114 240.37 400 235.093 410.829 224.537C421.796 213.982 427.279 201.371 427.279 186.703C427.279 177.108 424.743 168.266 419.671 160.178C414.599 152.09 407.814 145.648 399.315 140.85C390.953 136.052 381.905 133.653 372.173 133.653C362.714 133.653 353.735 136.052 345.236 140.85C336.737 145.648 329.952 152.09 324.88 160.178C319.808 168.266 317.272 177.108 317.272 186.703Z" fill="white"/>
<path d="M597.944 133.859C614.668 134.544 623.029 146.196 623.029 168.814V293.215H688.828V168.814C688.828 108.91 658.533 77.4503 597.944 74.4345H594.243C533.653 77.4503 503.358 108.91 503.358 168.814V293.215H569.157V168.814C569.157 146.196 577.519 134.544 594.243 133.859H597.944Z" fill="white"/>
<path d="M772.31 160.178C777.382 152.09 784.167 145.648 792.666 140.85C801.165 136.189 810.144 133.859 819.602 133.859C829.335 133.859 838.382 136.189 846.744 140.85C855.243 145.648 862.029 152.09 867.101 160.178C872.173 168.266 874.709 177.108 874.709 186.703C874.709 201.234 869.226 213.777 858.259 224.332C847.43 234.75 834.544 239.959 819.602 239.959C804.798 239.959 791.981 234.75 781.151 224.332C770.185 213.777 764.702 201.234 764.702 186.703C764.702 177.108 767.238 168.266 772.31 160.178ZM874.914 293.215L940.096 293.831L940.302 186.703C940.302 170.665 937.08 155.723 930.637 141.878C924.332 128.444 915.422 116.518 903.907 106.1C892.94 95.9561 880.055 88.1426 865.25 82.6594C850.445 77.1761 835.23 74.4345 819.602 74.4345C803.838 74.4345 788.622 77.2447 773.955 82.865C759.287 88.2111 746.402 95.9561 735.298 106.1C724.058 116.244 715.216 128.17 708.773 141.878C702.33 155.723 699.109 170.665 699.109 186.703C699.109 207.951 704.661 227.21 715.764 244.483C726.731 261.48 741.535 274.914 760.178 284.784C778.821 294.517 798.629 299.383 819.602 299.383C835.504 299.383 850.72 296.573 865.25 290.953C867.306 290.267 870.528 288.965 874.914 287.046V293.215Z" fill="white"/>
<path d="M950.788 1.43934L1016.38 1.23372V292.803L950.788 293.626V1.43934Z" fill="white"/>
<path d="M1202.47 186.909C1202.47 177.313 1199.93 168.54 1194.86 160.589C1189.79 152.502 1183 146.059 1174.5 141.261C1166.14 136.463 1157.16 134.064 1147.57 134.064C1137.97 134.064 1128.92 136.463 1120.42 141.261C1111.93 146.059 1105.14 152.502 1100.07 160.589C1095 168.54 1092.46 177.313 1092.46 186.909C1092.46 201.576 1097.94 214.188 1108.91 224.743C1119.74 235.298 1132.63 240.576 1147.57 240.576C1162.37 240.576 1175.19 235.298 1186.02 224.743C1196.98 214.188 1202.47 201.576 1202.47 186.909ZM1268.06 188.348C1267.92 209.184 1262.37 228.033 1251.41 244.894C1240.44 262.029 1225.63 275.463 1206.99 285.195C1188.35 295.065 1168.54 300 1147.57 300C1131.53 300 1116.31 297.19 1101.92 291.57C1087.66 286.361 1074.71 278.478 1063.06 267.923C1051.54 257.368 1042.63 245.305 1036.33 231.734C1030.02 218.163 1026.87 203.221 1026.87 186.909C1026.87 171.008 1030.09 156.134 1036.53 142.289C1042.84 128.581 1051.68 116.587 1063.06 106.306C1074.57 95.8876 1087.53 88.0055 1101.92 82.6594C1116.72 77.3132 1131.94 74.6402 1147.57 74.6402C1163.06 74.6402 1178.2 77.3132 1193.01 82.6594L1202.47 86.7718V0L1268.06 0.20562V188.348Z" fill="white"/>
<path d="M1293.06 29V10.55H1302.41C1303.16 10.55 1303.98 10.7667 1304.86 11.2C1305.74 11.6167 1306.49 12.2667 1307.11 13.15C1307.74 14.0167 1308.06 15.1167 1308.06 16.45C1308.06 17.8 1307.74 18.95 1307.09 19.9C1306.44 20.8333 1305.64 21.5417 1304.71 22.025C1303.79 22.5083 1302.93 22.75 1302.11 22.75H1295.36V19.75H1300.86C1301.41 19.75 1302 19.475 1302.64 18.925C1303.29 18.375 1303.61 17.55 1303.61 16.45C1303.61 15.3167 1303.29 14.55 1302.64 14.15C1302 13.75 1301.44 13.55 1300.96 13.55H1297.11V29H1293.06ZM1304.21 20.3L1308.81 29H1304.36L1299.86 20.3H1304.21ZM1300.06 40C1297.29 40 1294.7 39.4833 1292.29 38.45C1289.87 37.4167 1287.74 35.9833 1285.91 34.15C1284.08 32.3167 1282.64 30.1917 1281.61 27.775C1280.58 25.3583 1280.06 22.7667 1280.06 20C1280.06 17.2333 1280.58 14.6417 1281.61 12.225C1282.64 9.80834 1284.08 7.68334 1285.91 5.85C1287.74 4.01667 1289.87 2.58334 1292.29 1.55C1294.7 0.516667 1297.29 0 1300.06 0C1302.83 0 1305.42 0.516667 1307.84 1.55C1310.25 2.58334 1312.38 4.01667 1314.21 5.85C1316.04 7.68334 1317.48 9.80834 1318.51 12.225C1319.54 14.6417 1320.06 17.2333 1320.06 20C1320.06 22.7667 1319.54 25.3583 1318.51 27.775C1317.48 30.1917 1316.04 32.3167 1314.21 34.15C1312.38 35.9833 1310.25 37.4167 1307.84 38.45C1305.42 39.4833 1302.83 40 1300.06 40ZM1300.06 35.2C1302.86 35.2 1305.41 34.5167 1307.71 33.15C1310.01 31.7833 1311.84 29.95 1313.21 27.65C1314.58 25.35 1315.26 22.8 1315.26 20C1315.26 17.2 1314.58 14.65 1313.21 12.35C1311.84 10.05 1310.01 8.21667 1307.71 6.85C1305.41 5.48333 1302.86 4.8 1300.06 4.8C1297.26 4.8 1294.71 5.48333 1292.41 6.85C1290.11 8.21667 1288.28 10.05 1286.91 12.35C1285.54 14.65 1284.86 17.2 1284.86 20C1284.86 22.8 1285.54 25.35 1286.91 27.65C1288.28 29.95 1290.11 31.7833 1292.41 33.15C1294.71 34.5167 1297.26 35.2 1300.06 35.2Z" fill="white"/>
</svg>
